<svg width="44" height="45" viewBox="0 0 44 45" fill="none" xmlns="http://www.w3.org/2000/svg"><path d="M22.1556.0008L21.9974 0c-.7557 0-1.5044.0394-2.2408.1142A21.7672 21.7672 0 0018.74.244c-.0216.0023-.0447.0046-.0664.0085C9.6301 1.6294 2.3828 8.5348.4878 17.4008c-.0038.0185-.0092.0363-.0123.054-.061.2895-.1135.582-.1637.8753-.0123.0741-.0277.1475-.0393.2231-.0394.2463-.0703.4956-.1004.7449-.0154.1227-.034.2439-.047.3674-.0232.2146-.0379.4323-.054.6484-.0124.1583-.0271.3157-.0364.474-.0115.1976-.0139.3967-.0193.5943-.0038.1544-.0139.308-.0154.4631 0 .0247.0015.0494.0015.0757 0 .0262-.0015.0533-.0015.0803 0 .0694.007.1366.0077.2061.0031.3898.0162.7773.041 1.1624.0084.1313.0161.2625.027.3929.034.4261.078.8507.1366 1.2698.0046.037.0077.0749.013.1127.0665.4631.1514.9201.2456 1.374.0216.1011.0455.2007.0679.301.0849.3813.1806.7588.2864 1.1331.0216.0788.0416.1567.064.2339.1343.4547.2794.9024.4408 1.3431.0077.0209.0162.0409.0231.0618.1544.4183.3235.829.5018 1.235.0293.0672.0586.1351.0895.2015a22.001 22.001 0 001.3207 2.487c.01.0162.0178.0324.027.0486-.0008.024.0062.0487.0047.0741.027.0409.0548.0803.0787.1235.0231.0147.0478.027.071.0409a22.1382 22.1382 0 002.4886 3.2065.4918.4918 0 00.0185.0193 22.1386 22.1386 0 003.0112 2.6808c.0162.0123.0316.0224.0478.0347.3335.2439.6747.4794 1.022.7063.0402.0255.0787.0509.1181.0764.7441.477 1.5168.9139 2.318 1.3006.0154.0078.0301.0139.0455.0209.3644.1752.7341.3381 1.1093.4932.0841.0348.169.068.2524.1019.3273.1305.6592.2524.9934.3682.0803.0286.1605.0579.2424.0841a21.6251 21.6251 0 002.5063.6654c.1104.0224.2208.0417.3319.0618.3173.0586.6361.1119.9587.1574.1297.0178.2594.0371.3898.0525.3443.0425.6909.0757 1.039.1019.0911.007.1814.017.2725.0224.4083.0255.8197.0425 1.2334.0455l.1583.0008c12.0431 0 21.9102-9.7992 21.9959-21.8446C44.0844 10.0253 34.2859.0872 22.1556.0007zm-2.0902 42.4989a20.5937 20.5937 0 01-.9062-.1066l-.1189-.0162a21.1527 21.1527 0 01-.8954-.1497c-.0371-.0077-.0749-.0139-.1127-.0209a19.848 19.848 0 01-.8846-.1952c-.0347-.0085-.0702-.0163-.1065-.0247a19.7502 19.7502 0 01-.8738-.2386c-.0316-.01-.0648-.0185-.0965-.0277a20.791 20.791 0 01-.863-.2818c-.0293-.0108-.0594-.0201-.0887-.0309a21.4916 21.4916 0 01-.8507-.3242c-.0262-.0115-.0524-.0216-.0795-.0324a19.8659 19.8659 0 01-.8375-.3674c-.0231-.0108-.0478-.0208-.071-.0324a20.4421 20.4421 0 01-.8228-.4091c-.0201-.0108-.0409-.0209-.0602-.0309a21.4188 21.4188 0 01-.8074-.4516c-.017-.0108-.0355-.02-.0533-.0316a19.7763 19.7763 0 01-.7873-.4909c-.0162-.0108-.0317-.0193-.0479-.0301a21.6242 21.6242 0 01-.7665-.5311c-.013-.01-.0262-.0185-.0393-.0286a21.1205 21.1205 0 01-.7434-.5681c-.013-.01-.0239-.0193-.0362-.0285a21.6078 21.6078 0 01-.7164-.6036c-.0123-.0109-.0231-.0193-.0347-.0302a20.4463 20.4463 0 01-.6854-.6352l-.0355-.0332a21.9978 21.9978 0 01-.6523-.6646c-.0123-.0124-.0231-.0255-.0363-.0378a22.7711 22.7711 0 01-.616-.6901c-.0069-.0085-.0138-.0162-.02-.0239 2.8653 1.3654 5.9544 2.3689 9.2017 2.947 1.3346 1.5299 2.8622 2.9479 4.582 4.2239a.7486.7486 0 01-.0378-.0031zM4.4098 32.6951a20.3993 20.3993 0 01-1.0976-2.0509c-.0193-.041-.037-.0826-.0556-.1243a19.5553 19.5553 0 01-.4037-.9487c-.0247-.0625-.0486-.1266-.074-.1899a19.5853 19.5853 0 01-.3436-.9648c-.0146-.0456-.03-.0903-.0455-.1366a20.4774 20.4774 0 01-.9278-4.8344c-.0008-.007-.0008-.0139-.0016-.0201 2.5874 1.8834 5.4697 3.4234 8.5711 4.5411.7866 3.0744 2.1768 5.9783 4.1134 8.6027-3.4735-.7896-6.7363-2.0926-9.6973-3.8131a1.1078 1.1078 0 00-.0378-.061zm-2.599-14.7409c.048-.2362.1012-.4701.156-.7032.02-.0826.0386-.1667.0587-.2485.0509-.2015.1065-.4014.162-.5998.0332-.115.0657-.23.1012-.3442.0517-.1745.1073-.3466.1636-.5187.0479-.1428.0973-.2849.1474-.4269.0518-.1459.105-.291.1598-.4354.0178-.0486.0394-.0957.0571-.1435 2.0664 1.4982 4.3335 2.7603 6.7572 3.7452-.1907 1.2219-.2995 2.4631-.2995 3.7221 0 1.4666.142 2.9116.4006 4.328-3.0088-1.1772-5.7892-2.7696-8.2608-4.7016a20.569 20.569 0 01.3829-3.6017c.0046-.0239.0085-.0478.0139-.0718zm1.6419-4.883c.1984-.4098.4145-.8112.6383-1.2057.0896-.1582.1799-.3157.274-.4708.22-.3643.4508-.721.6917-1.0699.1173-.1705.24-.338.3628-.504.2423-.3296.4917-.6538.7533-.9672.1374-.1652.2795-.3234.4215-.4832.2092-.2362.423-.4662.6422-.6916.1011-.1042.2-.2092.3026-.3103 1.5546.9996 3.2311 1.8425 5.0018 2.5063-1.2643 2.1953-2.1713 4.5465-2.7054 6.9949-2.3173-.9664-4.4809-2.1983-6.4484-3.6557.0231-.0478.0424-.0964.0656-.1428zm5.3816-6.879c.2655-.2208.535-.437.8128-.6454.159-.1204.3227-.2354.4855-.3512.2378-.1683.4771-.3319.7225-.491.1428-.0918.2856-.1852.4307-.274a20.7959 20.7959 0 011.0599-.6074c.1242-.0664.2516-.129.3766-.193.3258-.1652.6554-.3226.9904-.4708.0864-.0386.1721-.0803.2593-.1166.4192-.1783.846-.3404 1.2783-.4917.0918-.0324.1845-.0633.2779-.0942.9324-.3095 1.8934-.5573 2.8799-.731.0456-.0077.0903-.0162.1366-.0239.5141-.0872 1.0344-.1582 1.56-.206-2.7695 2.0562-5.0597 4.4746-6.8088 7.1508a24.8665 24.8665 0 01-4.6754-2.2694c.0718-.0618.142-.1243.2138-.1853zm13.8949 10.1766c2.7896.3604 4.9532 2.7456 4.9532 5.6309 0 2.8854-2.1636 5.2705-4.9532 5.631V16.3688zm-6.477 20.6072c-2.1366-2.548-3.6904-5.4141-4.6082-8.4708 3.0513.934 6.2925 1.4605 9.6541 1.5261v7.4032c-1.7167-.034-3.4018-.1883-5.0459-.4585zm5.0459 1.8633v2.785c-1.2914-.9301-2.477-1.9405-3.5507-3.0212a36.821 36.821 0 003.5507.2362zM11.2226 26.8897c-.3528-1.5924-.5435-3.2258-.5435-4.8892 0-1.0845.0826-2.1559.2347-3.2118 3.2427 1.1532 6.7379 1.8131 10.3843 1.8888v7.9497c-3.5268-.0718-6.9131-.6785-10.0755-1.7375zm-.0641-9.5051c.5148-2.4716 1.4442-4.8367 2.7456-7.0381 2.335.7325 4.8182 1.1547 7.394 1.2211v7.705c-3.5662-.0764-6.9795-.7379-10.1396-1.888zm3.526-8.2732c1.7067-2.5271 3.9312-4.8065 6.6128-6.7378v7.7768c-2.2964-.0625-4.5163-.4153-6.6128-1.039zm8.0447 19.9373c3.5661-.3659 6.3573-3.3879 6.3573-7.049 0-3.6611-2.7912-6.683-6.3573-7.0489V8.8884c6.9123.382 12.4236 6.1056 12.4236 13.1121 0 7.0057-5.5113 12.7293-12.4236 13.1114v-6.0632zm0 13.5282v-6.064c7.6865-.3837 13.8277-6.7333 13.8277-14.5124 0-7.7807-6.1412-14.131-13.8277-14.5147V1.4234c11.0844.3898 19.9441 9.5614 19.8654 20.7222-.078 11.0319-8.9231 20.0461-19.8654 20.4313z" fill="#fff"/></svg>
